HIERARCHY
ROOT Hips
{
	OFFSET 47.408100 -16.134415 95.585602
	CHANNELS 6 Xposition Yposition Zposition Xrotation Yrotation Zrotation
	JOINT spine
	{
		OFFSET 0.000000 -0.458069 7.965683
		CHANNELS 3 Xrotation Yrotation Zrotation
		JOINT spine1
		{
			OFFSET 0.000000 -0.000002 10.243103
			CHANNELS 3 Xrotation Yrotation Zrotation
			JOINT spine2
			{
				OFFSET 0.000000 -0.000002 9.814751
				CHANNELS 3 Xrotation Yrotation Zrotation
				JOINT Neck
				{
					OFFSET 0.000000 -1.201384 25.198601
					CHANNELS 3 Xrotation Yrotation Zrotation
					JOINT Head
					{
						OFFSET 0.000000 0.000000 7.613144
						CHANNELS 3 Xrotation Yrotation Zrotation
						End Site
						{
							OFFSET 0.000000 6.077326 18.428101
						}
					}
				}
				JOINT RightShoulder
				{
					OFFSET -4.132702 0.575451 10.599205
					CHANNELS 3 Xrotation Yrotation Zrotation
					JOINT RightArm
					{
						OFFSET 0.000000 -0.000004 13.901794
						CHANNELS 3 Xrotation Yrotation Zrotation
						JOINT RightArmRoll
						{
							OFFSET 0.000000 0.000000 7.017883
							CHANNELS 3 Xrotation Yrotation Zrotation
							JOINT RightForeArm
							{
								OFFSET 0.000000 -0.000004 20.440598
								CHANNELS 3 Xrotation Yrotation Zrotation
								JOINT RightForeArmRoll
								{
									OFFSET 0.000000 -0.000002 7.875153
									CHANNELS 3 Xrotation Yrotation Zrotation
									JOINT RightHand
									{
										OFFSET 0.000000 -0.000002 15.803696
										CHANNELS 3 Xrotation Yrotation Zrotation
										End Site
										{
											OFFSET 0.000000 0.000000 0.100006
										}
									}
								}
							}
						}
					}
				}
				JOINT LeftShoulder
				{
					OFFSET 4.132702 0.575451 10.599205
					CHANNELS 3 Xrotation Yrotation Zrotation
					JOINT LeftArm
					{
						OFFSET 0.000000 -0.000004 13.901794
						CHANNELS 3 Xrotation Yrotation Zrotation
						JOINT LeftArmRoll
						{
							OFFSET 0.000000 0.000000 7.017883
							CHANNELS 3 Xrotation Yrotation Zrotation
							JOINT LeftForeArm
							{
								OFFSET 0.000000 -0.000004 20.440598
								CHANNELS 3 Xrotation Yrotation Zrotation
								JOINT LeftForeArmRoll
								{
									OFFSET 0.000000 -0.000002 7.875168
									CHANNELS 3 Xrotation Yrotation Zrotation
									JOINT LeftHand
									{
										OFFSET 0.000000 -0.000002 15.803696
										CHANNELS 3 Xrotation Yrotation Zrotation
										End Site
										{
											OFFSET 0.000000 0.000000 0.100006
										}
									}
								}
							}
						}
					}
				}
			}
		}
	}
	JOINT RightUpLeg
	{
		OFFSET -7.060482 1.086090 -1.294701
		CHANNELS 3 Xrotation Yrotation Zrotation
		JOINT RightUpLegRoll
		{
			OFFSET 0.000000 -0.000003 18.530800
			CHANNELS 3 Xrotation Yrotation Zrotation
			JOINT RightLeg
			{
				OFFSET 0.000000 0.000004 -22.947601
				CHANNELS 3 Xrotation Yrotation Zrotation
				JOINT RightLegRoll
				{
					OFFSET 0.000000 -0.000004 23.022598
					CHANNELS 3 Xrotation Yrotation Zrotation
					JOINT RightFoot
					{
						OFFSET 0.000000 -0.000004 19.162506
						CHANNELS 3 Xrotation Yrotation Zrotation
						JOINT RightToeBase
						{
							OFFSET 0.000000 -0.000002 16.018799
							CHANNELS 3 Xrotation Yrotation Zrotation
							End Site
							{
								OFFSET 0.006790 0.894205 7.757812
							}
						}
					}
				}
			}
		}
	}
	JOINT LeftUpLeg
	{
		OFFSET 7.060482 1.086090 -1.294701
		CHANNELS 3 Xrotation Yrotation Zrotation
		JOINT LeftUpLegRoll
		{
			OFFSET 0.000000 -0.000003 18.530899
			CHANNELS 3 Xrotation Yrotation Zrotation
			JOINT LeftLeg
			{
				OFFSET 0.000000 -0.000004 22.947502
				CHANNELS 3 Xrotation Yrotation Zrotation
				JOINT LeftLegRoll
				{
					OFFSET 0.000000 -0.000004 23.235504
					CHANNELS 3 Xrotation Yrotation Zrotation
					JOINT LeftFoot
					{
						OFFSET 0.000000 -0.000003 18.949600
						CHANNELS 3 Xrotation Yrotation Zrotation
						JOINT LeftToeBase
						{
							OFFSET 0.000000 -0.000003 16.018799
							CHANNELS 3 Xrotation Yrotation Zrotation
							End Site
							{
								OFFSET -0.030430 0.894206 7.757812
							}
						}
					}
				}
			}
		}
	}
}
MOTION
Frames: 7
Frame Time: 0.041667
50.048294 -10.388018 95.706993 -1.878499 1.119059 -0.979219 -1.544212 -0.377404 -0.094754 0.913710 -0.737274 -0.222837 2.558844 -0.739755 -0.213896 13.880085 -0.419166 -0.883252 2.168303 -0.065133 -0.869058 -5.693801 -66.602698 -7.370490 -42.175366 -117.524319 -21.636381 -0.000001 0.000001 0.000011 0.047648 -3.651561 -0.082133 0.000001 0.000003 -3.012338 -5.000190 -7.999611 0.000067 -3.441840 65.110137 4.684173 -40.475783 122.064961 15.174471 0.000003 0.000001 0.000001 -0.045917 -6.744799 -0.802264 0.000003 -0.000007 3.076721 -5.000159 8.000178 0.000049 2.687003 -175.238216 -1.366131 -179.999991 0.000005 -1.211001 175.447042 -2.469197 -0.611562 -0.000004 -0.000001 0.049852 68.869494 6.983910 1.879679 25.761747 -7.346079 0.449401 0.965320 173.111964 -0.480017 -0.000020 -0.000005 -1.220230 -7.548980 2.066935 0.365338 -0.000001 -0.000003 -0.154007 70.731294 -6.953621 -1.850615 25.549299 7.352568 -0.138922 
50.052696 -10.381317 95.708595 -1.853201 1.115677 -0.993053 -1.544383 -0.377374 -0.095647 0.913386 -0.739499 -0.224022 2.558525 -0.742003 -0.215060 13.809606 -0.375460 -0.882799 2.203872 -0.099935 -0.865547 -5.654935 -66.590765 -7.325569 -42.138316 -117.538608 -21.625298 0.000002 0.000000 0.000010 0.064295 -3.667019 -0.080586 -0.000000 0.000003 -3.012342 -5.000191 -7.999611 0.000066 -3.488124 65.115574 4.737336 -40.483716 122.056409 15.233933 0.000001 0.000000 -0.000000 -0.045593 -6.676940 -0.791928 0.000001 -0.000007 3.076910 -5.000156 8.000179 0.000050 2.648241 -175.235074 -1.367441 -179.999991 0.000004 -1.211001 175.435417 -2.471145 -0.612222 -0.000004 -0.000001 0.049719 68.862404 6.983902 1.879825 25.769016 -7.346099 0.460022 0.945053 173.112934 -0.477462 -0.000020 -0.000005 -1.220000 -7.537100 2.070511 0.365270 -0.000001 -0.000003 -0.153967 70.723508 -6.953632 -1.850605 25.549805 7.352564 -0.139129 
50.053493 -10.368217 95.707001 -1.828233 1.112404 -1.007124 -1.544531 -0.377345 -0.096504 0.913109 -0.741839 -0.225151 2.558246 -0.744367 -0.216168 13.739737 -0.330851 -0.882423 2.238685 -0.136094 -0.862067 -5.614985 -66.578444 -7.279407 -42.099189 -117.553348 -21.612452 0.000000 0.000001 0.000013 0.081219 -3.683028 -0.078988 0.000002 0.000003 -3.012340 -5.000191 -7.999610 0.000068 -3.534387 65.121599 4.790539 -40.492083 122.048049 15.292080 0.000002 0.000001 -0.000001 -0.045289 -6.610929 -0.781888 0.000003 -0.000007 3.077091 -5.000154 8.000178 0.000051 2.610934 -175.231932 -1.368834 -179.999991 0.000005 -1.211001 175.425732 -2.473113 -0.611802 -0.000004 -0.000001 0.049520 68.854276 6.983902 1.879939 25.776396 -7.346109 0.470925 0.926072 173.114887 -0.475278 -0.000020 -0.000005 -1.219800 -7.523717 2.074283 0.365166 -0.000002 -0.000002 -0.153908 70.715209 -6.953674 -1.850630 25.550211 7.352565 -0.139263 
50.042698 -10.373619 95.705383 -1.803507 1.109221 -1.021355 -1.544676 -0.377316 -0.097335 0.912863 -0.744260 -0.226242 2.557998 -0.746810 -0.217236 13.670276 -0.285612 -0.882068 2.272969 -0.173200 -0.858593 -5.574359 -66.565958 -7.232460 -42.060722 -117.567104 -21.600919 0.000002 0.000001 0.000013 0.098331 -3.699426 -0.077345 0.000000 0.000003 -3.012339 -5.000192 -7.999611 0.000067 -3.580655 65.128005 4.843788 -40.502875 122.038268 15.351654 -0.000001 0.000000 0.000002 -0.044996 -6.546189 -0.772046 0.000003 -0.000007 3.077261 -5.000157 8.000178 0.000048 2.574636 -175.228804 -1.370287 -179.999991 0.000005 -1.210004 175.417440 -2.475073 -0.612319 -0.000004 -0.000001 0.049275 68.845418 6.983931 1.880003 25.783974 -7.346124 0.482052 0.907988 173.115844 -0.473382 -0.000020 -0.000004 -1.219610 -7.509289 2.078179 0.365035 -0.000001 -0.000003 -0.153836 70.706583 -6.953713 -1.850574 25.550715 7.352564 -0.139361 
50.050095 -10.362420 95.705795 -1.778920 1.106067 -1.035679 -1.544802 -0.377289 -0.098151 0.912635 -0.746726 -0.227309 2.557769 -0.749300 -0.218282 13.601024 -0.240013 -0.881680 2.306938 -0.210848 -0.855105 -5.533348 -66.553363 -7.185064 -42.020652 -117.581502 -21.587668 0.000002 0.000001 0.000012 0.115558 -3.716054 -0.075676 -0.000000 0.000003 -3.012342 -5.000192 -7.999610 0.000067 -3.626937 65.134706 4.897065 -40.513793 122.028570 15.410652 0.000005 0.000000 -0.000001 -0.044712 -6.482189 -0.762327 0.000003 -0.000007 3.077420 -5.000158 8.000178 0.000048 2.538931 -175.224678 -1.371731 -179.999991 0.000005 -1.210004 175.409968 -2.477036 -0.612802 -0.000004 -0.000001 0.049004 68.836231 6.983939 1.880086 25.791653 -7.346121 0.493297 0.890425 173.116814 -0.471641 -0.000020 -0.000005 -1.219440 -7.494256 2.082157 0.364888 -0.000001 -0.000003 -0.153755 70.697751 -6.953748 -1.850634 25.551121 7.352567 -0.139416 
50.042698 -10.359814 95.704292 -1.754363 1.102913 -1.050030 -1.544922 -0.377261 -0.098964 0.912412 -0.749205 -0.228372 2.557551 -0.751801 -0.219322 13.531880 -0.194325 -0.881200 2.340841 -0.248627 -0.851579 -5.492234 -66.540673 -7.137549 -41.981922 -117.595162 -21.576115 0.000003 0.000001 0.000011 0.132809 -3.732731 -0.073991 -0.000001 0.000003 -3.012340 -5.000190 -7.999610 0.000068 -3.673219 65.141386 4.950357 -40.524899 122.018898 15.469591 0.000002 0.000000 -0.000000 -0.044432 -6.418370 -0.752637 0.000001 -0.000007 3.077574 -5.000154 8.000180 0.000050 2.503358 -175.221536 -1.373231 -179.999991 0.000005 -1.210004 175.402673 -2.479011 -0.613278 -0.000004 -0.000001 0.048727 68.826942 6.983940 1.880172 25.799324 -7.346131 0.504568 0.872988 173.118794 -0.469924 -0.000020 -0.000005 -1.219270 -7.479066 2.086145 0.364734 -0.000002 -0.000003 -0.153673 70.688824 -6.953812 -1.850604 25.551524 7.352560 -0.139466 
50.037693 -10.346615 95.701294 -1.729740 1.099719 -1.064321 -1.545060 -0.377233 -0.099784 0.912180 -0.751660 -0.229446 2.557313 -0.754280 -0.220373 13.462649 -0.148820 -0.880575 2.374890 -0.286130 -0.847994 -5.451410 -66.528057 -7.090367 -41.941948 -117.609574 -21.562943 -0.000001 0.000001 0.000012 0.150006 -3.749298 -0.072305 -0.000001 0.000003 -3.012341 -5.000191 -7.999611 0.000068 -3.719534 65.147949 5.003681 -40.535680 122.009144 15.528681 0.000001 0.000000 -0.000000 -0.044150 -6.354181 -0.742890 0.000001 -0.000007 3.077731 -5.000159 8.000178 0.000048 2.467497 -175.218408 -1.374720 -179.999991 0.000005 -1.210004 175.394982 -2.480973 -0.613770 -0.000004 -0.000001 0.048463 68.817844 6.983914 1.880442 25.806907 -7.346134 0.515782 0.855296 173.119751 -0.468146 -0.000020 -0.000004 -1.219100 -7.464184 2.090094 0.364586 -0.000001 -0.000003 -0.153595 70.680088 -6.953845 -1.850557 25.551929 7.352564 -0.139530 
